<?xml version="1.0"?>
<svg version="1.1" xmlns="http://www.w3.org/2000/svg" width="345" height="60" style=""><path fill="#f7f1f8" d="M16.225,51l0-2.975l2.625-1.05l0-16.45l-2.625-1.05l0-2.975l8.4-0.175l9.45,16.17l0-11.97l-2.555-1.05l0-2.975l9.975-0.175l0,3.15l-2.625,1.05l0,20.475l-5.845,0l-9.38-15.855l0,11.83l2.73,1.05l0,2.975l-10.15,0z M58.13785,51l-0.63-2.275s-2.695,2.625-5.67,2.625c-3.395,0-5.46-1.995-5.46-5.495c0-4.13,3.115-5.775,8.435-5.775l2.45,0l0-1.925c0-1.785-0.945-2.555-2.695-2.555c-1.785,0-3.08,0.525-3.08,0.525l-0.525,2.205l-3.15,0l-0.245-5.18s4.235-1.4,7.595-1.4c5.32,0,7.35,1.855,7.35,6.93l0,8.645l2.625,0.63l0,2.8z M57.26285,43.055l-1.995,0c-2.73,0-3.815,0.7-3.815,2.275c0,1.33,0.735,2.1,2.065,2.1c1.855,0,3.745-2.03,3.745-2.03l0-2.345z M82.0957,46.52l1.26,2.66c-1.715,1.26-3.675,2.17-5.95,2.17c-4.025,0-5.18-2.8-5.18-6.825l0-8.05l-3.255,0l0-3.395l3.255-0.455l0-4.83l5.25-0.945l0,5.775l4.9,0l0,3.85l-4.9,0l0,7.7c0,2.24,0.385,3.15,1.855,3.15c0.945,0,2.31-0.56,2.765-0.805z M104.44355,42.705l-11.62,0c0.21,2.8,1.82,4.445,4.235,4.445c2.905,0,5.88-1.645,5.88-1.645l1.505,2.905s-3.5,2.94-7.98,2.94c-6.02,0-9.1-3.5-9.1-9.45c0-6.125,3.465-10.15,9.345-10.15c5.215,0,7.945,3.22,7.945,8.225c0,1.33-0.21,2.625-0.21,2.73z M92.89355,39.45l6.335,0c0-1.995-0.84-3.5-2.87-3.5c-1.96,0-3.185,1.435-3.465,3.5z M128.24425,26.325l3.675,0c4.55,0,7.7,1.925,7.7,6.055c0,3.045-1.435,4.9-4.2,5.775c3.29,0.945,5.005,2.905,5.005,5.6c0,5.145-3.43,7.245-9.1,7.245l-11.13,0l0-2.975l2.625-1.05l0-16.45l-2.625-1.05l0-2.975z M128.24425,36.405l2.03,0c2.555,0,3.92-1.085,3.92-3.255c0-1.82-1.295-2.625-2.975-2.625l-2.975,0l0,5.88z M128.24425,46.8l2.905,0c2.45,0,3.745-1.12,3.745-3.045c0-2.555-1.47-3.675-4.62-3.675l-2.03,0l0,6.72z M157.5921,51l-0.63-2.275s-2.695,2.625-5.67,2.625c-3.395,0-5.46-1.995-5.46-5.495c0-4.13,3.115-5.775,8.435-5.775l2.45,0l0-1.925c0-1.785-0.945-2.555-2.695-2.555c-1.785,0-3.08,0.525-3.08,0.525l-0.525,2.205l-3.15,0l-0.245-5.18s4.235-1.4,7.595-1.4c5.32,0,7.35,1.855,7.35,6.93l0,8.645l2.625,0.63l0,2.8z M156.7171,43.055l-1.995,0c-2.73,0-3.815,0.7-3.815,2.275c0,1.33,0.735,2.1,2.065,2.1c1.855,0,3.745-2.03,3.745-2.03l0-2.345z M171.29495,26.325c0-1.995,1.435-3.15,3.01-3.15c1.82,0,2.94,0.945,2.94,3.15c0,2.065-1.505,3.185-2.94,3.185c-1.89,0-3.01-1.12-3.01-3.185z M177.17495,47.325l2.45,0.875l0,2.8l-10.5,0l0-2.8l2.8-0.875l0-11.375l-2.8-0.875l0-2.8l8.05-0.175l0,15.225z M191.8928,47.325l3.15,0.875l0,2.8l-11.235,0l0-2.8l2.8-0.875l0-19.67l-2.8-0.7l0-2.8l8.085-0.28l0,23.45z M215.95565,42.705l-11.62,0c0.21,2.8,1.82,4.445,4.235,4.445c2.905,0,5.88-1.645,5.88-1.645l1.505,2.905s-3.5,2.94-7.98,2.94c-6.02,0-9.1-3.5-9.1-9.45c0-6.125,3.465-10.15,9.345-10.15c5.215,0,7.945,3.22,7.945,8.225c0,1.33-0.21,2.625-0.21,2.73z M204.40565,39.45l6.335,0c0-1.995-0.84-3.5-2.87-3.5c-1.96,0-3.185,1.435-3.465,3.5z M219.9985,35.075l0-2.8l9.345-0.175l0,2.975l-1.96,0.35l3.115,9.8l2.975-9.695l-2.03-0.455l0-2.8l9.415-0.175l0,2.975l-2.17,0.455l-5.145,14.35c-1.68,4.62-3.955,9.52-9.52,9.52c-1.19,0-3.395-0.28-3.395-0.28l0.49-3.745l2.275,0c2.8,0,4.095-2.975,4.69-4.34l-6.23-15.4z"/><path fill="#" d=""/></svg>
